<svg enable-background="new 0 0 620 137.777" height="137.777" viewBox="0 0 620 137.777" width="620" xmlns="http://www.w3.org/2000/svg" xmlns:xlink="http://www.w3.org/1999/xlink"><radialGradient id="a" cx="394.1" cy="23.4" gradientUnits="userSpaceOnUse" r="3.5"><stop offset=".4677" stop-color="#f1f1f2"/><stop offset="1" stop-color="#d0d2d3"/></radialGradient><linearGradient id="b"><stop offset=".2835" stop-color="#fff"/><stop offset="1" stop-color="#58595b"/></linearGradient><linearGradient id="c" gradientUnits="userSpaceOnUse" x1="126.1" x2="126.1" xlink:href="#b" y1="34.5" y2="115.4"/><linearGradient id="d" gradientUnits="userSpaceOnUse" x1="256.6" x2="256.6" xlink:href="#b" y1="34.5" y2="115.4"/><linearGradient id="e" gradientUnits="userSpaceOnUse" x1="307.9" x2="307.9" xlink:href="#b" y1="34.5" y2="115.4"/><linearGradient id="f" gradientUnits="userSpaceOnUse" x1="358.9" x2="358.9" xlink:href="#b" y1="34.5" y2="115.4"/><linearGradient id="g" gradientUnits="userSpaceOnUse" x1="394.5" x2="394.5" xlink:href="#b" y1="34.5" y2="115.4"/><linearGradient id="h" gradientUnits="userSpaceOnUse" x1="430.5" x2="430.5" xlink:href="#b" y1="34.5" y2="115.4"/><linearGradient id="i" gradientUnits="userSpaceOnUse" x1="477.9" x2="477.9" xlink:href="#b" y1="34.5" y2="115.4"/><linearGradient id="j"><stop offset="0" stop-color="#fff"/><stop offset="1" stop-color="#58595b"/></linearGradient><linearGradient id="k" gradientUnits="userSpaceOnUse" x1="21.6" x2="21.6" xlink:href="#j" y1="34.5" y2="115.4"/><linearGradient id="l" gradientUnits="userSpaceOnUse" x1="64.6" x2="64.6" xlink:href="#j" y1="34.5" y2="115.4"/><g fill="#fff"><path d="m520.008 65.802 18.678-10.5v60.519h-7.215v-49.137l-11.463 6.812z"/><path d="m550.648 89.528v-32.544h28.457v6.733h-21.724v16.512c2.886-1.202 5.13-1.603 7.694-1.603 7.936 0 18.1 6.1 18.1 18.597 0 10.582-7.936 19.239-18.438 19.239-9.057 0-14.348-3.688-18.436-10.341l6.012-3.929c2.484 5 6.7 7.9 11.9 7.938 5.21 0 11.783-3.85 11.783-12.748 0-7.213-5.371-12.424-12.184-12.424-4.41 0-8.416 1.523-12.346 5.131z"/><path d="m608.137 82.234c2.244-3.367 4.648-6.974 4.648-11.142 0-4.408-3.767-8.016-8.416-8.016-5.369 0-9.699 2.725-10.181 9.939h-7.214c.24-9.939 7.055-16.673 16.834-16.673 8.496 0 16.2 5.1 16.2 14.7 0 3.848-1.121 7.215-3.047 10.1l-18.517 27.976h21.082v6.733h-33.906z"/><path d="m395.6 22.4 14.2 1-14.2 1.2z"/><path d="m393.3 22.4-14.2 1 14.2 1.2z"/></g><path d="m392.7 22 1.4-16.7 1.5 16.7z" fill="#e6e7e8"/><path d="m392.7 24.7 1.4 16.8 1.5-16.8z" fill="#e6e7e8"/><path d="m397.528 23.442c0 1.916-1.548 3.467-3.462 3.467-1.918 0-3.467-1.551-3.467-3.467 0-1.914 1.549-3.466 3.467-3.466 1.914.024 3.434 1.524 3.434 3.466z" fill="#bbbdbf"/><path d="m386.5 16 7.4 5.7 7.3-5.7-5.6 7.4 5.6 7.4-7.3-5.7-7.4 5.7 5.6-7.4z" fill="#bbbdbf"/><path d="m397.555 23.444c0 1.923-1.562 3.488-3.492 3.488-1.926 0-3.488-1.565-3.488-3.488 0-1.928 1.562-3.491 3.488-3.491 1.929.047 3.537 1.547 3.537 3.491z" fill="url(#a)"/><path d="m126.123 53.938c20.68 0 32.3 16.4 32.3 31.422 0 15.07-11.624 31.423-32.304 31.4-20.681 0-32.304-16.353-32.304-31.423.004-15.037 11.585-31.437 32.285-31.399zm0 55.662c12.424 0 24.127-9.779 24.127-24.208 0-14.428-11.703-24.207-24.127-24.207-12.425 0-24.127 9.779-24.127 24.2-.001 14.415 11.704 24.215 24.104 24.183z" fill="url(#c)"/><path d="m272.76 54.901h7.694v60.919h-7.213l-32.704-47.133h-.16v47.133h-7.697v-60.919h7.215l32.704 47.132h.16v-47.132z" fill="url(#d)"/><path d="m319.497 72.295c-1.042-7.214-5.211-11.623-11.703-11.623-8.658 0-10.981 5.691-10.981 9.9 0 4.6 2.9 7.5 8.9 9.698l7.695 2.886c9.699 3.6 14.2 9.3 14.2 16.674 0 9.859-7.854 16.994-19.557 17-11.062 0-18.918-5.852-19.879-18.036h7.694c.642 6.7 4 11.3 12.6 11.301 6.654 0 11.461-4.248 11.461-9.617 0-4.729-3.926-7.777-9.458-9.94l-7.775-3.046c-9.057-3.526-13.547-8.817-13.547-16.673 0-10.5 8.738-16.833 18.758-16.833 10.098 0 18 6 18.8 18.356h-7.208z" fill="url(#e)"/><path d="m374.848 54.901h7.697v60.919h-7.697v-27.574h-31.822v27.574h-7.693v-60.919h7.693v26.13h31.822z" fill="url(#f)"/><path d="m390.684 54.901h7.693v60.919h-7.693z" fill="url(#g)"/><path d="m446.725 54.901h7.695v60.919h-7.213l-32.706-47.133h-.159v47.133h-7.695v-60.919h7.213l32.704 47.132h.161z" fill="url(#h)"/><path d="m462.105 54.901h31.5v7.213h-23.807v19.318h23.807v7.214h-23.807v19.96h23.807v7.214h-31.5z" fill="url(#i)"/><path d="m43.2 116.3-35.3-65.6h-.2v65.5h-7.7v-81.3h7.7l35.5 65.5z" fill="url(#k)"/><path d="m43.1 100.3 35.3-65.6h7.7v81.2h-7.7v-65.5h-.1l-35.1 65.9z" fill="url(#l)"/><path d="m183.374 54.612c-5.914 5.644-9.604 13.599-9.604 22.416 0 17.1 13.9 31 31 31 8.079 0 15.433-3.096 20.95-8.155-5.609 9.609-16.023 16.072-27.955 16.072-17.872 0-32.357-14.49-32.357-32.357-.001-12.688 7.292-23.688 17.992-28.976z" fill="#fff"/></svg>